<svg width="756" height="594" viewBox="0 0 756 594" fill="none" xmlns="http://www.w3.org/2000/svg">
	<path opacity="0.5" d="M176 472.789V591H577.528V437H589" stroke="#6C63FF" stroke-width="4.01408" stroke-miterlimit="10" />
	<g clip-path="url(#clip0)">
		<path d="M298.679 532.038H247.8V316.907H342.808L298.679 532.038Z" fill="url(#paint0_linear)" />
		<path d="M296.146 532.038H246.275V316.907H339.396L296.146 532.038Z" fill="#F5F5F5" />
		<path d="M204.099 186.981L-0.00231934 246.356L21.9359 328.003L226.037 268.628L204.099 186.981Z" fill="url(#paint1_linear)" />
		<path d="M203.12 188.537L2.43018 246.92L23.6655 325.951L224.355 267.569L203.12 188.537Z" fill="#F4F4F4" />
		<path d="M114.927 244.077L64.4346 258.766L65.5117 262.774L116.004 248.086L114.927 244.077Z" fill="#F5F5F5" />
		<path d="M119.233 260.104L68.7413 274.792L69.8184 278.801L120.31 264.112L119.233 260.104Z" fill="white" />
		<path d="M147.725 243.173L66.5851 266.777L67.6622 270.786L148.802 247.181L147.725 243.173Z" fill="white" />
		<path d="M48.0305 284.422C52.9943 282.978 55.8932 277.621 54.5054 272.456C53.1177 267.291 47.9687 264.274 43.0049 265.718C38.0411 267.162 35.1422 272.52 36.53 277.685C37.9178 282.85 43.0667 285.866 48.0305 284.422Z" fill="white" />
		<path d="M259.919 205.193L60.3729 282.493L89.1909 363.035L288.737 285.736L259.919 205.193Z" fill="url(#paint2_linear)" />
		<path d="M258.419 208.187L63.1277 283.839L90.6442 360.744L285.935 285.093L258.419 208.187Z" fill="#F7F7F7" />
		<path d="M175 271.21L125.867 290.243L127.263 294.144L176.396 275.11L175 271.21Z" fill="#F5F5F5" />
		<path d="M180.583 286.805L131.45 305.839L132.845 309.739L181.979 290.706L180.583 286.805Z" fill="white" />
		<path d="M208.69 267.501L129.493 298.184L130.894 302.097L210.09 271.414L208.69 267.501Z" fill="white" />
		<path d="M111.583 317.242C116.413 315.371 118.871 309.779 117.073 304.753C115.274 299.727 109.901 297.17 105.071 299.041C100.241 300.912 97.7826 306.503 99.5809 311.529C101.379 316.555 106.753 319.113 111.583 317.242Z" fill="white" />
		<path d="M142.904 259.88L128.334 344.986L337.429 383.74L351.999 298.634L142.904 259.88Z" fill="url(#paint3_linear)" />
		<path d="M349.061 299.922L143.905 261.897L130.074 342.687L335.231 380.712L349.061 299.922Z" fill="#FAFAFA" />
		<path d="M194.826 300.567L194.125 304.664L245.74 314.231L246.442 310.133L194.826 300.567Z" fill="#F5F5F5" />
		<path d="M192.024 316.957L191.323 321.055L242.938 330.621L243.64 326.523L192.024 316.957Z" fill="white" />
		<path d="M193.422 308.762L192.721 312.859L275.667 328.233L276.368 324.135L193.422 308.762Z" fill="white" />
		<path d="M180.169 308.415C181.073 303.135 177.692 298.093 172.618 297.152C167.543 296.212 162.697 299.729 161.793 305.009C160.889 310.289 164.27 315.332 169.344 316.272C174.419 317.213 179.265 313.695 180.169 308.415Z" fill="white" />
		<path d="M82.891 314.376L48.5485 289.357H0.998779V314.376V326.632V536H298.177V314.376H82.891Z" fill="url(#paint4_linear)" />
		<path d="M84.1747 316.907L50.3581 292.62H3.54187V316.907V328.806V532.039H296.146V316.907H84.1747Z" fill="white" />
		<path d="M229.825 481.267C229.829 482.231 229.465 483.158 228.812 483.843C228.16 484.529 227.273 484.917 226.346 484.922H73.3464C72.4194 484.917 71.5323 484.529 70.8799 483.843C70.2276 483.158 69.8634 482.231 69.8672 481.267V372.513C69.8634 371.549 70.2276 370.622 70.8799 369.937C71.5323 369.251 72.4194 368.863 73.3464 368.858H226.346C227.273 368.863 228.16 369.251 228.812 369.937C229.465 370.622 229.829 371.549 229.825 372.513" fill="url(#paint5_linear)" />
		<path d="M228.025 479.495C228.025 480.427 227.669 481.321 227.036 481.98C226.402 482.639 225.543 483.009 224.647 483.009H75.1752C74.2793 483.009 73.4202 482.639 72.7867 481.98C72.1532 481.321 71.7974 480.427 71.7974 479.495V374.366C71.7974 373.434 72.1532 372.54 72.7867 371.881C73.4202 371.222 74.2793 370.852 75.1752 370.852H224.628C225.524 370.852 226.383 371.222 227.017 371.881C227.65 372.54 228.006 373.434 228.006 374.366" fill="white" />
		<path d="M217.935 375.712H82.0176C79.659 375.712 77.7471 377.701 77.7471 380.155V474.077C77.7471 476.531 79.659 478.52 82.0176 478.52H217.935C220.294 478.52 222.206 476.531 222.206 474.077V380.155C222.206 377.701 220.294 375.712 217.935 375.712Z" fill="url(#paint6_linear)" />
		<path d="M216.005 378.217H83.7934C81.4349 378.217 79.5229 380.207 79.5229 382.661V471.185C79.5229 473.639 81.4349 475.628 83.7934 475.628H216.005C218.364 475.628 220.276 473.639 220.276 471.185V382.661C220.276 380.207 218.364 378.217 216.005 378.217Z" fill="white" />
		<path d="M71.6961 474.74L110.994 427.889C111.672 427.081 112.497 426.42 113.421 425.944C114.345 425.469 115.35 425.188 116.379 425.118C117.407 425.048 118.439 425.19 119.415 425.536C120.391 425.883 121.291 426.426 122.064 427.136L133.056 437.238C134.461 438.528 136.265 439.251 138.139 439.274C140.013 439.297 141.833 438.619 143.267 437.364L176.9 407.951C178.447 406.594 180.44 405.914 182.459 406.054C184.478 406.193 186.367 407.141 187.728 408.699L229 455.966C230.148 457.281 230.852 458.951 231.003 460.721L232.595 479.364C232.691 480.489 232.562 481.623 232.214 482.694C231.866 483.764 231.308 484.748 230.575 485.581C229.842 486.415 228.95 487.081 227.956 487.536C226.962 487.991 225.888 488.226 224.802 488.226H77.5928C75.5594 488.226 73.6061 487.401 72.1468 485.928C70.6875 484.454 69.837 482.448 69.7756 480.333V480.333C69.7157 478.283 70.4016 476.286 71.6961 474.74V474.74Z" fill="#6C63FF" />
		<path d="M96.4746 402.905C101.288 402.905 105.189 398.845 105.189 393.837C105.189 388.829 101.288 384.77 96.4746 384.77C91.6616 384.77 87.7599 388.829 87.7599 393.837C87.7599 398.845 91.6616 402.905 96.4746 402.905Z" fill="#FF5252" />
	</g>
	<path d="M737 0H401V463H737V0Z" fill="url(#paint7_linear)" />
	<path d="M731 7H421V454H731V7Z" fill="white" />
	<path d="M421 7H406V454H421V7Z" fill="#F5F5F5" />
	<path d="M680 338H472V344H680V338Z" fill="#E0E0E0" />
	<path opacity="0.4" d="M680 359H472V364H680V359Z" fill="#69F0AE" />
	<path opacity="0.4" d="M680 379H472V384H680V379Z" fill="#FFFF00" />
	<path d="M680 399H472V405H680V399Z" fill="#E0E0E0" />
	<path d="M680 420H472V425H680V420Z" fill="#E0E0E0" />
	<path d="M540.861 78.9358C540.948 77.9557 541 76.9668 541 75.9691C541 72.8928 540.577 69.8316 539.743 66.8748L535.971 67.0602L534.236 62.2217L536.673 59.511C534.676 55.9839 532.06 52.8596 528.956 50.2931L525.981 52.6417L521.836 49.6927L522.313 46.0462C518.696 44.313 514.794 43.28 510.807 43L509.688 46.6642H504.633L502.968 43.3973C497.142 44.4276 491.705 47.0629 487.247 51.0171L488.981 54.4076L485.408 58.0453L481.94 56.9417C479.63 60.2645 477.945 63.9947 476.971 67.9431L480.336 69.709L479.469 74.7771L476 75.8808C476 75.8808 476 75.9338 476 75.9602C475.999 80.0057 476.731 84.0167 478.159 87.7917L481.905 87.2708L484.038 91.9327L481.844 94.8464C484.131 98.186 487 101.071 490.308 103.358L493.074 100.709L497.453 103.287L497.297 106.978C500.879 108.319 504.666 109.004 508.483 109H509.029L509.827 105.247L514.865 104.797L516.807 107.905C520.671 106.859 524.311 105.093 527.542 102.696L526.085 99.164L529.961 95.853L533.291 97.2568C535.873 94.1477 537.87 90.5796 539.179 86.7322L535.988 84.6837L537.297 79.7128L540.861 78.9358ZM508.517 100.727C503.715 100.727 499.021 99.2769 495.028 96.5603C491.036 93.8438 487.924 89.9827 486.086 85.4653C484.248 80.9478 483.767 75.977 484.704 71.1813C485.641 66.3856 487.953 61.9805 491.349 58.523C494.745 55.0655 499.071 52.7109 503.781 51.757C508.49 50.8031 513.372 51.2927 517.809 53.1639C522.245 55.0351 526.037 58.2038 528.705 62.2694C531.373 66.3349 532.797 71.1148 532.797 76.0044C532.781 82.5562 530.218 88.8349 525.668 93.4678C521.118 98.1006 514.952 100.71 508.517 100.727V100.727Z" fill="#6C63FF" />
	<path opacity="0.6" d="M580.861 139.936C580.948 138.956 581 137.967 581 136.969C581 133.893 580.577 130.832 579.743 127.875L575.971 128.06L574.236 123.222L576.673 120.511C574.676 116.984 572.06 113.86 568.956 111.293L565.981 113.642L561.836 110.693L562.313 107.046C558.696 105.313 554.794 104.28 550.807 104L549.688 107.664H544.633L542.968 104.397C537.142 105.428 531.705 108.063 527.247 112.017L528.981 115.408L525.408 119.045L521.94 117.942C519.63 121.265 517.945 124.995 516.971 128.943L520.336 130.709L519.469 135.777L516 136.881C516 136.881 516 136.934 516 136.96C515.999 141.006 516.731 145.017 518.159 148.792L521.905 148.271L524.038 152.933L521.844 155.846C524.131 159.186 527 162.071 530.308 164.358L533.074 161.709L537.453 164.287L537.297 167.978C540.879 169.319 544.666 170.004 548.483 170H549.029L549.827 166.247L554.865 165.797L556.807 168.905C560.671 167.859 564.311 166.093 567.542 163.696L566.085 160.164L569.961 156.853L573.291 158.257C575.873 155.148 577.87 151.58 579.179 147.732L575.988 145.684L577.297 140.713L580.861 139.936ZM548.517 161.727C543.715 161.727 539.021 160.277 535.028 157.56C531.036 154.844 527.924 150.983 526.086 146.465C524.248 141.948 523.767 136.977 524.704 132.181C525.641 127.386 527.953 122.981 531.349 119.523C534.745 116.066 539.071 113.711 543.781 112.757C548.49 111.803 553.372 112.293 557.809 114.164C562.245 116.035 566.037 119.204 568.705 123.269C571.373 127.335 572.797 132.115 572.797 137.004C572.781 143.556 570.218 149.835 565.668 154.468C561.118 159.101 554.952 161.71 548.517 161.727Z" fill="#6C63FF" />
	<path opacity="0.4" d="M621.861 78.9358C621.948 77.9557 622 76.9668 622 75.9691C622 72.8928 621.577 69.8316 620.743 66.8748L616.971 67.0602L615.236 62.2217L617.673 59.511C615.676 55.9839 613.06 52.8596 609.956 50.2931L606.981 52.6417L602.836 49.6927L603.313 46.0462C599.696 44.313 595.794 43.28 591.807 43L590.688 46.6642H585.633L583.968 43.3973C578.142 44.4276 572.705 47.0629 568.247 51.0171L569.981 54.4076L566.408 58.0453L562.94 56.9417C560.63 60.2645 558.945 63.9947 557.971 67.9431L561.336 69.709L560.469 74.7771L557 75.8808C557 75.8808 557 75.9338 557 75.9602C556.999 80.0057 557.731 84.0167 559.159 87.7917L562.905 87.2708L565.038 91.9327L562.844 94.8464C565.131 98.186 568 101.071 571.308 103.358L574.074 100.709L578.453 103.287L578.297 106.978C581.879 108.319 585.666 109.004 589.483 109H590.029L590.827 105.247L595.865 104.797L597.807 107.905C601.671 106.859 605.311 105.093 608.542 102.696L607.085 99.164L610.961 95.853L614.291 97.2568C616.873 94.1477 618.87 90.5796 620.179 86.7322L616.988 84.6837L618.297 79.7128L621.861 78.9358ZM589.517 100.727C584.715 100.727 580.021 99.2769 576.028 96.5603C572.036 93.8438 568.924 89.9827 567.086 85.4653C565.248 80.9478 564.767 75.977 565.704 71.1813C566.641 66.3856 568.953 61.9805 572.349 58.523C575.745 55.0655 580.071 52.7109 584.781 51.757C589.49 50.8031 594.372 51.2927 598.809 53.1639C603.245 55.0351 607.037 58.2038 609.705 62.2694C612.373 66.3349 613.797 71.1148 613.797 76.0044C613.781 82.5562 611.218 88.8349 606.668 93.4678C602.118 98.1006 595.952 100.71 589.517 100.727V100.727Z" fill="#6C63FF" />
	<path d="M670.861 139.936C670.948 138.956 671 137.967 671 136.969C671 133.893 670.577 130.832 669.743 127.875L665.971 128.06L664.236 123.222L666.673 120.511C664.676 116.984 662.06 113.86 658.956 111.293L655.981 113.642L651.836 110.693L652.313 107.046C648.696 105.313 644.794 104.28 640.807 104L639.688 107.664H634.633L632.968 104.397C627.142 105.428 621.705 108.063 617.247 112.017L618.981 115.408L615.408 119.045L611.94 117.942C609.63 121.265 607.945 124.995 606.971 128.943L610.336 130.709L609.469 135.777L606 136.881C606 136.881 606 136.934 606 136.96C605.999 141.006 606.731 145.017 608.159 148.792L611.905 148.271L614.038 152.933L611.844 155.846C614.131 159.186 617 162.071 620.308 164.358L623.074 161.709L627.453 164.287L627.297 167.978C630.879 169.319 634.666 170.004 638.483 170H639.029L639.827 166.247L644.865 165.797L646.807 168.905C650.671 167.859 654.311 166.093 657.542 163.696L656.085 160.164L659.961 156.853L663.291 158.257C665.873 155.148 667.87 151.58 669.179 147.732L665.988 145.684L667.297 140.713L670.861 139.936ZM638.517 161.727C633.715 161.727 629.021 160.277 625.028 157.56C621.036 154.844 617.924 150.983 616.086 146.465C614.248 141.948 613.767 136.977 614.704 132.181C615.641 127.386 617.953 122.981 621.349 119.523C624.745 116.066 629.071 113.711 633.781 112.757C638.49 111.803 643.372 112.293 647.809 114.164C652.245 116.035 656.037 119.204 658.705 123.269C661.373 127.335 662.797 132.115 662.797 137.004C662.781 143.556 660.218 149.835 655.668 154.468C651.118 159.101 644.952 161.71 638.517 161.727V161.727Z" fill="#6C63FF" />
	<path d="M541 19H535" stroke="#6C63FF" stroke-miterlimit="10" />
	<path d="M524 19H464" stroke="#6C63FF" stroke-miterlimit="10" stroke-dasharray="12.71 12.71" />
	<path d="M458 19H453V25" stroke="#6C63FF" stroke-miterlimit="10" />
	<path d="M453 35V110" stroke="#6C63FF" stroke-miterlimit="10" stroke-dasharray="11.33 11.33" />
	<path d="M453 115V120" stroke="#6C63FF" stroke-miterlimit="10" />
	<path d="M581 197H699V91" stroke="#6C63FF" stroke-miterlimit="10" stroke-dasharray="12 12" />
	<path d="M756 231H490V301H756V231Z" fill="url(#paint8_linear)" />
	<path d="M753 235H493V298H753V235Z" fill="#6C63FF" />
	<path d="M638 250H562V254H638V250Z" fill="#6C63FF" />
	<path opacity="0.2" d="M638 258H562V262H638V258Z" fill="black" />
	<path d="M711 271H562V275H711V271Z" fill="white" />
	<path d="M522.5 283C531.613 283 539 275.389 539 266C539 256.611 531.613 249 522.5 249C513.387 249 506 256.611 506 266C506 275.389 513.387 283 522.5 283Z" fill="#6C63FF" />
	<path opacity="0.2" d="M522.5 283C531.613 283 539 275.389 539 266C539 256.611 531.613 249 522.5 249C513.387 249 506 256.611 506 266C506 275.389 513.387 283 522.5 283Z" fill="black" />
	<defs>
		<linearGradient id="paint0_linear" x1="295.306" y1="532.038" x2="295.306" y2="316.907" gradientUnits="userSpaceOnUse">
			<stop stop-color="#808080" stop-opacity="0.25" />
			<stop offset="0.54" stop-color="#808080" stop-opacity="0.12" />
			<stop offset="1" stop-color="#808080" stop-opacity="0.1" />
		</linearGradient>
		<linearGradient id="paint1_linear" x1="92139.7" y1="17865.6" x2="89990.5" y2="-6296.49" gradientUnits="userSpaceOnUse">
			<stop stop-color="#808080" stop-opacity="0.25" />
			<stop offset="0.54" stop-color="#808080" stop-opacity="0.12" />
			<stop offset="1" stop-color="#808080" stop-opacity="0.1" />
		</linearGradient>
		<linearGradient id="paint2_linear" x1="127187" y1="39176" x2="127187" y2="12156.3" gradientUnits="userSpaceOnUse">
			<stop stop-color="#808080" stop-opacity="0.25" />
			<stop offset="0.54" stop-color="#808080" stop-opacity="0.12" />
			<stop offset="1" stop-color="#808080" stop-opacity="0.1" />
		</linearGradient>
		<linearGradient id="paint3_linear" x1="71282.9" y1="107919" x2="76409.7" y2="53061.2" gradientUnits="userSpaceOnUse">
			<stop stop-color="#808080" stop-opacity="0.25" />
			<stop offset="0.54" stop-color="#808080" stop-opacity="0.12" />
			<stop offset="1" stop-color="#808080" stop-opacity="0.1" />
		</linearGradient>
		<linearGradient id="paint4_linear" x1="92126.3" y1="171729" x2="92126.3" y2="50570.1" gradientUnits="userSpaceOnUse">
			<stop stop-color="#808080" stop-opacity="0.25" />
			<stop offset="0.54" stop-color="#808080" stop-opacity="0.12" />
			<stop offset="1" stop-color="#808080" stop-opacity="0.1" />
		</linearGradient>
		<linearGradient id="paint5_linear" x1="149.844" y1="484.922" x2="149.844" y2="368.853" gradientUnits="userSpaceOnUse">
			<stop stop-color="#B3B3B3" stop-opacity="0.25" />
			<stop offset="0.54" stop-color="#B3B3B3" stop-opacity="0.1" />
			<stop offset="1" stop-color="#B3B3B3" stop-opacity="0.05" />
		</linearGradient>
		<linearGradient id="paint6_linear" x1="44975.5" y1="60068.4" x2="44975.5" y2="39016.3" gradientUnits="userSpaceOnUse">
			<stop stop-color="#B3B3B3" stop-opacity="0.25" />
			<stop offset="0.54" stop-color="#B3B3B3" stop-opacity="0.1" />
			<stop offset="1" stop-color="#B3B3B3" stop-opacity="0.05" />
		</linearGradient>
		<linearGradient id="paint7_linear" x1="569" y1="463" x2="569" y2="0" gradientUnits="userSpaceOnUse">
			<stop stop-color="#808080" stop-opacity="0.25" />
			<stop offset="0.54" stop-color="#808080" stop-opacity="0.12" />
			<stop offset="1" stop-color="#808080" stop-opacity="0.1" />
		</linearGradient>
		<linearGradient id="paint8_linear" x1="68719" y1="24101" x2="68719" y2="18501" gradientUnits="userSpaceOnUse">
			<stop stop-color="#808080" stop-opacity="0.25" />
			<stop offset="0.54" stop-color="#808080" stop-opacity="0.12" />
			<stop offset="1" stop-color="#808080" stop-opacity="0.1" />
		</linearGradient>
		<clipPath id="clip0">
			<rect width="352" height="349" fill="white" transform="translate(0 187)" />
		</clipPath>
	</defs>
</svg>
